<?xml version="1.0" encoding="UTF-8"?>
<svg id="Layer_1" data-name="Layer 1" xmlns="http://www.w3.org/2000/svg" viewBox="0 0 1466 512">
  <defs>
    <style>
      .cls-1 {
        fill: #6b44dc;
      }

      .cls-1, .cls-2, .cls-3 {
        fill-rule: evenodd;
      }

      .cls-2 {
        fill: #fff;
      }

      .cls-3 {
        fill: #00003c;
      }
    </style>
  </defs>
  <path class="cls-1" d="M224.59,156.83h188.24c54.54,0,99.17,44.62,99.17,99.17h0c0,54.55-44.63,99.18-99.17,99.18h-188.24v-61.75h188.56c20.58,0,37.42-16.84,37.42-37.43h0c0-20.58-16.84-37.42-37.42-37.42h-188.56v-61.75Z"/>
  <path class="cls-3" d="M256,512h0c-54.55,0-99.17-44.63-99.17-99.17v-52.76h61.75v53.08c0,20.58,16.84,37.43,37.42,37.43h0c20.58,0,37.42-16.84,37.42-37.43v-194.6h61.75v194.28c0,54.54-44.63,99.17-99.17,99.17h0ZM293.42,156.68v-57.83c0-20.58-16.84-37.42-37.42-37.42h0c-20.58,0-37.42,16.84-37.42,37.42v51.15h-61.75v-50.83C156.83,44.62,201.46,0,256,0h0c54.54,0,99.17,44.62,99.17,99.17v57.51h-61.75Z"/>
  <path class="cls-3" d="M0,256h0c0-54.54,44.63-99.17,99.17-99.17h52.07v61.75h-68.59v74.85h68.59v61.75h-52.07C44.63,355.17,0,310.54,0,256Z"/>
  <path class="cls-2" d="M549.56,379.94,671.55,383.95c-17.04,0-33.09-3.01-48.13-9.02-15.37-6.35-28.07-14.71-39.1-25.06-10.7-10.7-19.05-23.39-25.4-38.1-6.02-14.71-9.36-30.41-9.36-47.12s3.34-32.75,9.36-47.46c6.35-14.71,14.7-27.41,25.4-37.77,11.03-10.7,23.73-19.05,39.1-25.07,15.04-6.01,31.08-9.02,48.13-9.02,21.39,0,41.11,4.68,58.82,13.7,17.71,9.36,32.08,22.06,43.11,38.1l-44.79,27.74c-6.35-9.36-14.37-16.38-24.4-21.72-10.03-5.35-21.06-8.02-32.75-8.02-19.72,0-36.09,6.35-49.13,19.72-13.03,13.37-19.72,29.75-19.72,49.8s6.69,36.43,19.72,49.46c13.03,13.37,29.41,20.05,49.13,20.05,12.03,0,22.73-2.67,32.75-8.02,10.03-5.35,18.05-12.37,24.4-21.72l44.79,27.74c-11.03,16.04-25.4,28.74-43.11,38.1-17.71,9.02-37.43,13.7-58.82,13.7Z"/>
  <path class="cls-2" d="M794.81,379.94,875.36,383.95c-24.06,0-43.78-6.68-58.49-19.72-14.71-13.37-22.06-30.75-22.06-52.47v-102.27h48.8v95.58c0,9.36,3.01,17.05,8.69,23.06,5.68,5.68,13.37,8.69,23.06,8.69s17.38-3.01,23.06-8.69c5.68-6.01,8.69-13.7,8.69-23.06v-95.58h48.79v102.27c0,21.72-7.35,39.1-22.06,52.47-14.71,13.04-34.09,19.72-58.49,19.72h0ZM992,379.94,1086.91,206.82h7.35v50.13h-7.35c-14.71,0-26.07,3.68-34.09,11.7-8.02,7.69-12.03,18.38-12.03,31.75v79.54h-48.79v-170.45h48.79v19.38c12.7-14.71,28.07-22.06,46.12-22.06Z"/>
  <path class="cls-2" d="M1105.18,379.94,1285.65,295.38c0,6.02-.33,11.03-1,15.37h-127c3.01,9.69,8.36,17.04,16.04,22.39,8.02,5.68,17.04,8.36,27.74,8.36,9.02,0,17.38-2,25.06-5.35,7.35-3.68,13.37-8.36,17.71-13.7l32.75,28.41c-9.36,10.36-20.39,18.72-33.75,24.4-13.37,6.02-27.74,8.69-43.11,8.69-27.07,0-49.8-8.69-67.84-25.73-18.05-17.38-27.07-38.77-27.07-64.5,0-16.38,4.01-31.41,11.7-44.78,8.02-13.7,19.05-24.06,32.75-31.75,14.04-7.69,29.41-11.7,46.46-11.7,25.4,0,46.79,8.35,63.83,25.73,17.04,17.04,25.73,38.43,25.73,64.17h0ZM1195.42,247.59c-9.02,0-17.04,2.67-24.06,8.36-6.68,5.35-11.36,12.7-14.04,22.39h76.53c-2.67-9.69-7.35-17.04-14.37-22.73-6.69-5.35-14.71-8.02-24.06-8.02h0ZM1313.73,379.94,1313.73,379.94v-240.63h48.79v240.63h-48.79ZM1395.61,379.94,1425.69,187.77c-8.35,0-15.71-3.01-21.39-8.69s-8.69-12.7-8.69-21.39,3.01-15.71,8.69-21.39c5.68-5.68,13.03-8.35,21.39-8.35s16.04,2.67,21.73,8.35c6.01,5.68,8.69,12.7,8.69,21.39s-2.67,15.71-8.69,21.39c-5.68,5.68-13.03,8.69-21.73,8.69h0ZM1401.29,379.94v-170.45h48.79v170.45h-48.79Z"/>
</svg>